<svg xmlns="http://www.w3.org/2000/svg" viewBox="0 0 81.27 93.64" fill="#7C87AB"><g id="Layer_2" data-name="Layer 2"><g id="Layer_1-2" data-name="Layer 1"><path d="M55.82,75.31a1.74,1.74,0,0,0,1.74-1.73V67.66a1.74,1.74,0,0,0-1.74-1.74H49.91a1.74,1.74,0,0,0-1.74,1.74v5.92a1.74,1.74,0,0,0,1.74,1.73Zm-4.91-6.65h3.91v3.91H50.91Z"/><path d="M70.16,75.31a1.74,1.74,0,0,0,1.74-1.73V67.66a1.74,1.74,0,0,0-1.74-1.74H64.24a1.74,1.74,0,0,0-1.74,1.74v5.92a1.74,1.74,0,0,0,1.74,1.73Zm-4.92-6.65h3.91v3.91H65.24Z"/><path d="M79.9,90.9H78.08v-29a2.18,2.18,0,0,0-1.49-2.07V46.17a1.38,1.38,0,0,0-2.75,0v2.69H61.4V36.66a1.37,1.37,0,1,0-2.74,0v1.28H46.22V36.66a1.37,1.37,0,0,0-2.74,0v19A2.18,2.18,0,0,0,42,57.71V69.22a1.37,1.37,0,0,0,2.74,0V58.29H62.5v2.25a2,2,0,0,0,2,2H75.34V90.9H65.89V81.16a1.74,1.74,0,0,0-1.74-1.74H55.92a1.74,1.74,0,0,0-1.74,1.74V90.9H44.76V75.62a1.37,1.37,0,1,0-2.74,0V90.9H40.2a1.37,1.37,0,1,0,0,2.74H79.9a1.37,1.37,0,1,0,0-2.74ZM58.66,40.69v8.17H46.22V40.69ZM46.22,51.6H58.66v3.94H46.22Zm16.86,3.94H61.4V51.6H73.84v8.17h-8.6V57.71a2.17,2.17,0,0,0-2.16-2.17ZM56.92,82.16h6.22V90.9H56.92Z"/><path d="M32.54,85.57a1.77,1.77,0,0,0-1.69-1.26H28.71V24.87H30a2.16,2.16,0,0,0,2.13-2.54l-.16-1H45a1.37,1.37,0,1,0,0-2.74H31.46l-.6-3.49H73.5a1.75,1.75,0,0,1,0,3.49H51.39a1.37,1.37,0,1,0,0,2.74H68.57v9.37a4.57,4.57,0,1,0,5.94,4.36,1.38,1.38,0,1,0-2.75,0,1.82,1.82,0,1,1-1.82-1.83,1.37,1.37,0,0,0,1.37-1.37V21.36H73.5a4.49,4.49,0,0,0,0-9h-10L23.06.06h0A1.22,1.22,0,0,0,22.6,0a1.31,1.31,0,0,0-.68.22c-.11.06,1.5-1-18,12.17H2a2,2,0,0,0-2,2v5a2,2,0,0,0,2,2H4.65v4.89H2.17A2.17,2.17,0,0,0,0,28.41v4.8a2.17,2.17,0,0,0,2.17,2.17H9.88a2.18,2.18,0,0,0,2.17-2.17v-4.8a2.17,2.17,0,0,0-2.17-2.16H7.39V21.36h6.08l-.17,1a2.17,2.17,0,0,0,2.14,2.54h1.17V84.31H14.47a1.77,1.77,0,0,0-1.69,1.26L11,91.36a1.74,1.74,0,0,0,.27,1.56,1.77,1.77,0,0,0,1.42.72H32.6A1.77,1.77,0,0,0,34,92.92a1.74,1.74,0,0,0,.27-1.56ZM9.3,32.63H2.74V29H9.3ZM26,71.79l-4.88-5.41H26Zm0-10.34-4.88-5.4H26Zm0-10.33-4.88-5.41H26Zm0-10.34-4.88-5.4H26ZM24.25,43H19.36v-5.4Zm0,10.33H19.36V47.9Zm0,10.34H19.36v-5.4Zm-4.89,4.93L24.25,74H19.36Zm0-35.94v-5.4l4.89,5.4ZM26,76.72v5.4l-4.88-5.4Zm0-46.28-5-5.57h5Zm4.43-18-.3-1.71A2.17,2.17,0,0,0,28,8.88H24V3.22l30.06,9.17ZM21.29,4V8.88H17.45a2.18,2.18,0,0,0-2.14,1.8L15,12.39H8.83ZM6,18.62H2.74V15.13h11.8l-.6,3.49Zm10.41,1.65v0l1.5-8.63h9.53l1.82,10.51H16.12Zm2.92,58.64,4.89,5.4H19.36ZM14,90.9l1.17-3.85H30.13l1.16,3.85Z"/></g></g></svg>