<svg xmlns="http://www.w3.org/2000/svg" viewBox="0 0 93.29 93.28" fill="#7C87AB"><g id="Layer_2" data-name="Layer 2"><g id="Layer_1-2" data-name="Layer 1"><path d="M65.29,85.11A42.78,42.78,0,0,1,14.64,18.18l-1.17,6.05a2,2,0,0,0,3.89.78c1.67-8.37,2.47-12.47,2.45-12.27a1.94,1.94,0,0,0-.44-1.6,1.91,1.91,0,0,0-1.5-.68l-12.45.29a1.95,1.95,0,0,0,0,3.89l7.41-.17A46.67,46.67,0,0,0,67,88.61a1.95,1.95,0,1,0-1.71-3.5Z"/><path d="M87.67,78.69l-7.4.18C108.75,49.25,87.36,0,46.53,0A46.32,46.32,0,0,0,26.05,4.73a2,2,0,0,0-1,1.11,1.93,1.93,0,0,0,.09,1.49C27.08,11,31,3.89,46.53,3.89c36.67,0,56.58,43.69,31.89,71.26l1.16-6a2,2,0,1,0-3.88-.78C73,81.65,73.15,80.87,73.28,81.43c.53,1.95,1.31,1.46,14.37,1.15a1.95,1.95,0,1,0,0-3.89Z"/><path d="M32.92,42.78H40.7a1.95,1.95,0,0,0,0-3.89H36.81v-2a1.95,1.95,0,0,0-3.89,0v2a5.84,5.84,0,1,0,0,11.67h3.89a1.94,1.94,0,0,1,0,3.88H29a1.95,1.95,0,1,0,0,3.89h3.89v2a1.95,1.95,0,0,0,3.89,0v-2a5.83,5.83,0,0,0,0-11.66H32.92a1.95,1.95,0,1,1,0-3.89Z"/><path d="M67,19.44H45.56a4.86,4.86,0,0,0-4.86,4.87v3.75a21.39,21.39,0,1,0,1.57,40.6C44.22,70.47,43.71,70,67,70a4.87,4.87,0,0,0,4.86-4.86c0-6.59.21-7.16-1-8.75,1.24-1.65,1-2.45,1-8.75a5,5,0,0,0-1-2.92,4.93,4.93,0,0,0,1-2.91c0-6.6.21-7.16-1-8.75,1.24-1.66,1-2.45,1-8.75A4.89,4.89,0,0,0,67,19.44ZM44.58,24.31a1,1,0,0,1,1-1H67c1.28,0,1,1,1,6.81a1,1,0,0,1-1,1c-23.86,0-18.4.51-22.37-1.53ZM67.92,36v5.84a1,1,0,0,1-1,1H55.41A21.25,21.25,0,0,0,51.35,35H66.91a1,1,0,0,1,1,1Zm0,11.67v5.83a1,1,0,0,1-1,1H55.41a20.23,20.23,0,0,0,.84-7.77H67a1,1,0,0,1,1,1Zm-50.56,1a17.5,17.5,0,1,1,17.5,17.5,17.51,17.51,0,0,1-17.5-17.5ZM67.92,65.14a1,1,0,0,1-1,1H47.11a21.56,21.56,0,0,0,6.79-7.78H67a1,1,0,0,1,1,1Z"/></g></g></svg>