<svg xmlns="http://www.w3.org/2000/svg" viewBox="0 0 97.64 97.64"><defs><style>.cls-1{fill:#7C87AB;}</style></defs><g id="Layer_2" data-name="Layer 2"><g id="Layer_1-2" data-name="Layer 1"><path class="cls-1" d="M96,76.48a1.63,1.63,0,1,0,0-3.25H94.38a1.63,1.63,0,1,0-3.25,0h-26a1.63,1.63,0,1,0-3.25,0H60.21a1.63,1.63,0,1,0,0,3.25h1.63v4.88H60.21a1.63,1.63,0,1,0,0,3.26h1.63v1.62H60.21a1.63,1.63,0,0,0,0,3.26h1.63v4.88H34.17V80.92A16.16,16.16,0,0,0,42.06,83,16.76,16.76,0,0,0,58.58,66a17,17,0,0,0-9.26-15.24,14.92,14.92,0,0,0,2.88-8.86A14.69,14.69,0,0,0,40.44,27.42,12.59,12.59,0,0,0,29.29,9.64h-.14a11.38,11.38,0,0,0-22.54.26A8.14,8.14,0,0,0,8.14,26h9.48a14.24,14.24,0,0,0,.52,1.37A14.9,14.9,0,0,0,9.27,50.79,16.94,16.94,0,0,0,0,66,16.76,16.76,0,0,0,16.52,83a16.14,16.14,0,0,0,7.89-2.07V94.38H1.63a1.63,1.63,0,0,0,0,3.26H96a1.63,1.63,0,0,0,0-3.26H94.38V89.5H96a1.63,1.63,0,0,0,0-3.26H94.38V84.62H96a1.63,1.63,0,0,0,0-3.26H94.38V76.48ZM8.14,22.78a4.88,4.88,0,0,1,0-9.76,1.62,1.62,0,0,0,1.62-1.63,8.12,8.12,0,0,1,16.15-1.25A12.55,12.55,0,0,0,17,22.22c0,.19,0,.37,0,.56ZM3.26,66A13.61,13.61,0,0,1,12.48,53a1.63,1.63,0,0,0,.63-2.71,11.55,11.55,0,0,1-3.47-8.34,11.33,11.33,0,0,1,11-11.52,1.69,1.69,0,0,0,1.63-.88,1.61,1.61,0,0,0-.14-1.7,9.44,9.44,0,0,1-1.86-5.61,9.19,9.19,0,0,1,9-9.33,9.19,9.19,0,0,1,9,9.33,9.38,9.38,0,0,1-1.86,5.61,1.65,1.65,0,0,0,1.36,2.59A11.33,11.33,0,0,1,48.94,41.93a11.55,11.55,0,0,1-3.47,8.34A1.64,1.64,0,0,0,46.1,53a13.77,13.77,0,0,1-4,26.76,13,13,0,0,1-10.94-6L41.83,63a1.63,1.63,0,0,0-2.3-2.3L30.92,69.3V52.75l7.66-7.66a1.63,1.63,0,0,0-2.3-2.3l-5.36,5.35V40.68a1.63,1.63,0,0,0-3.26,0v7.46l-5.35-5.35a1.63,1.63,0,1,0-2.3,2.3l7.65,7.66V69.3l-8.61-8.61a1.63,1.63,0,0,0-2.3,2.3L27.47,73.7a13,13,0,0,1-10.95,6A13.52,13.52,0,0,1,3.26,66Zm24.4,28.35V78.53a16.81,16.81,0,0,0,1.63-1.75,18,18,0,0,0,1.63,1.75V94.38Zm63.47,0h-26V89.5h26Zm0-8.14h-26V84.62h26Zm0-4.88h-26V76.48h26Z"/><path class="cls-1" d="M91,24.55a11.39,11.39,0,0,0-22.59,0A8.14,8.14,0,0,0,70,40.68H89.5A8.14,8.14,0,0,0,91,24.55ZM89.5,37.43H70a4.89,4.89,0,0,1,0-9.77A1.62,1.62,0,0,0,71.6,26a8.14,8.14,0,1,1,16.27,0,1.62,1.62,0,0,0,1.63,1.62,4.89,4.89,0,0,1,0,9.77Z"/></g></g></svg>