<svg xmlns="http://www.w3.org/2000/svg" viewBox="0 0 86 100.99" fill="#7C87AB"><g id="Layer_2" data-name="Layer 2"><g id="Layer_1-2" data-name="Layer 1"><path d="M43,101a2.31,2.31,0,0,1-.37,0A52.54,52.54,0,0,1,0,49.35V14.83A2,2,0,0,1,1.38,13L42.35.11A2.06,2.06,0,0,1,43,0h0a2,2,0,0,1,.65.11L84.62,13A2,2,0,0,1,86,14.83V49.35A52.57,52.57,0,0,1,43.37,101a2.31,2.31,0,0,1-.37,0ZM3.94,16.28V49.35A48.68,48.68,0,0,0,43,97,48.67,48.67,0,0,0,82.05,49.35V16.28L43,4Z"/><path d="M43,89.68a2.61,2.61,0,0,1-.48-.05A41.59,41.59,0,0,1,11.05,49.35V22.94a2,2,0,0,1,1.38-1.88l30-9.39a2,2,0,0,1,1.18,0l30,9.39A2,2,0,0,1,75,22.94V49.35a41.58,41.58,0,0,1-4.83,19.41,2,2,0,1,1-3.48-1.85A37.59,37.59,0,0,0,71,49.35v-25L43,15.62,15,24.39v25A37.5,37.5,0,0,0,43,85.68a37.34,37.34,0,0,0,12.68-6.07A2,2,0,1,1,58,82.79a41.41,41.41,0,0,1-14.54,6.84,2.61,2.61,0,0,1-.48.05Z"/><path d="M39.42,65.34a2,2,0,0,1-1.4-.58L24.81,51.55a2,2,0,0,1,0-2.79l6.7-6.69a2,2,0,0,1,2.79,0l5.12,5.12L51.7,34.9a2,2,0,0,1,2.79,0l6.7,6.7a2,2,0,0,1,0,2.79L40.81,64.76a1.94,1.94,0,0,1-1.39.58ZM29,50.16,39.42,60.58,57,43l-3.9-3.9L40.81,51.37a2,2,0,0,1-2.79,0L32.9,46.25Z"/><path d="M63.36,77.14a1.95,1.95,0,0,1-2-2,2,2,0,0,1,2-2,2,2,0,0,1,2,2,2,2,0,0,1-2,2Z"/></g></g></svg>