<svg xmlns="http://www.w3.org/2000/svg" viewBox="0 0 91.15 91.15" fill="#7C87AB"><defs><style>.cls-1{fill-rule:evenodd;}</style></defs><g id="Layer_2" data-name="Layer 2"><g id="Layer_1-2" data-name="Layer 1"><path class="cls-1" d="M77.48,9.11A1.52,1.52,0,1,1,76,7.6a1.52,1.52,0,0,1,1.52,1.51Z"/><path class="cls-1" d="M77.48,39.5A1.52,1.52,0,1,1,76,38a1.52,1.52,0,0,1,1.52,1.52Z"/><path d="M4.57,33.42H32.89a4.54,4.54,0,0,0,4.5-3.8l.12-.73a131.63,131.63,0,0,1,23.26,2.37V45.58a3,3,0,0,0,3,3h24.3a3,3,0,0,0,3-3V3a3,3,0,0,0-3-3H63.8a3,3,0,0,0-3,3V7.6H41a4.53,4.53,0,0,0-1.32-3.23A4.47,4.47,0,0,0,36.45,3H4.56A4.56,4.56,0,0,0,0,7.6V28.86a4.57,4.57,0,0,0,4.57,4.56ZM66.8,33a5.65,5.65,0,0,0,2.07.4,5.52,5.52,0,0,0,3.09-1,9,9,0,0,0,4,1,9.11,9.11,0,1,0-8.39-12.61c-1.09-.54-2.34-1.12-3.77-1.73V10.5A9.12,9.12,0,0,0,71.26,3h9.39a9.13,9.13,0,0,0,7.46,7.46V38.12a9.13,9.13,0,0,0-7.46,7.46H71.26a9.12,9.12,0,0,0-7.46-7.46V32a31,31,0,0,1,3,1Zm4.93-9.93c-.45-.27-.94-.56-1.48-.86A6.08,6.08,0,1,1,76,30.38,5.87,5.87,0,0,1,74,30a5.71,5.71,0,0,0-2.24-6.94ZM63.8,41.23a6.1,6.1,0,0,1,4.35,4.35H63.8Zm20,4.35a6.1,6.1,0,0,1,4.34-4.35v4.35Zm4.34-38.2A6.11,6.11,0,0,1,83.77,3h4.34ZM68.15,3A6.1,6.1,0,0,1,63.8,7.38V3ZM60.77,17.83c-2.05-.8-4.39-1.65-7.13-2.56a1.52,1.52,0,0,0-1,2.89,82.1,82.1,0,0,1,17.49,7.55,2.66,2.66,0,0,1,1,3.29,2.54,2.54,0,0,1-3.23,1.2C59.31,26.83,45.22,26,38,25.87l2.54-15.24H60.77ZM3,7.6A1.52,1.52,0,0,1,4.56,6.08H36.45A1.51,1.51,0,0,1,38,7.85L34.39,29.11a1.51,1.51,0,0,1-1.5,1.27H4.57A1.53,1.53,0,0,1,3,28.86Z"/><path d="M28.85,18.23a4.56,4.56,0,1,0-4.56-4.56,4.56,4.56,0,0,0,4.56,4.56Zm0-6.08a1.52,1.52,0,1,1-1.52,1.52,1.52,1.52,0,0,1,1.52-1.52Z"/><path d="M48.61,42.54H42.54A4.56,4.56,0,0,0,38,47.09V66.84H36.55a3.13,3.13,0,0,0-2.21,5.34l9,8.94a3.13,3.13,0,0,0,4.42,0l9-9a3.12,3.12,0,0,0-2.21-5.33H53.17V47.09a4.56,4.56,0,0,0-4.56-4.55Zm6.07,27.4s0,0,0,.08l-9.16,9-9-9,.07-.14h3A1.52,1.52,0,0,0,41,68.36V47.09a1.51,1.51,0,0,1,1.52-1.51h6.07a1.51,1.51,0,0,1,1.52,1.51V68.36a1.52,1.52,0,0,0,1.52,1.52Z"/><path d="M82,51.65H76a4.56,4.56,0,0,0-4.56,4.56V76H70a3.11,3.11,0,0,0-2.21,5.33l9,8.95a3.14,3.14,0,0,0,4.43,0l9-8.95A3.13,3.13,0,0,0,88,76H86.59V56.21A4.56,4.56,0,0,0,82,51.65ZM88.1,79.06s0,0,0,.07l-9.16,9-9-9L70,79h2.94a1.52,1.52,0,0,0,1.52-1.52V56.21A1.52,1.52,0,0,1,76,54.69H82a1.52,1.52,0,0,1,1.51,1.52V77.48A1.52,1.52,0,0,0,85.07,79Z"/><path d="M15.19,51.65H9.11a4.56,4.56,0,0,0-4.55,4.56V76H3.13A3.12,3.12,0,0,0,.92,81.29l9,8.95a3.13,3.13,0,0,0,4.42,0l9-8.95A3.12,3.12,0,0,0,21.17,76H19.75V56.21a4.56,4.56,0,0,0-4.56-4.56Zm6.07,27.41s0,0,0,.07l-9.17,9-9-9L3.13,79h3A1.52,1.52,0,0,0,7.6,77.48V56.21a1.52,1.52,0,0,1,1.51-1.52h6.08a1.52,1.52,0,0,1,1.52,1.52V77.48A1.52,1.52,0,0,0,18.23,79Z"/></g></g></svg>