<svg xmlns="http://www.w3.org/2000/svg" viewBox="0 0 90.31 93.48" fill="#7C87AB"><g id="Layer_2" data-name="Layer 2"><g id="Layer_1-2" data-name="Layer 1"><path d="M88.75,40.54H55.85a40.72,40.72,0,0,0-3.51-8.34l6-10.39a10.92,10.92,0,1,0-10.75-6.3l-2.43,4.22-2.44-4.22A10.89,10.89,0,1,0,32,21.81l6,10.38a41.68,41.68,0,0,0-3.53,8.35H1.56A1.56,1.56,0,0,0,0,42.1V91.92a1.56,1.56,0,0,0,1.56,1.56H88.75a1.56,1.56,0,0,0,1.56-1.56V42.1a1.55,1.55,0,0,0-1.56-1.56ZM56.86,59.43h0c.08-.47.13-.94.2-1.4a19.87,19.87,0,0,1,2.11,9c0,9.44-6.29,17.13-14,17.13s-14-7.69-14-17.13,6.29-17.13,14-17.13a11.77,11.77,0,0,1,3.33.54L54,59.92a1.56,1.56,0,0,0,2.88-.49Zm.59-9.55H74.9A7.79,7.79,0,0,0,81,56V78.07a7.79,7.79,0,0,0-6.07,6.07H54.24a21.28,21.28,0,0,0,8-17.13,22.07,22.07,0,0,0-4.77-14q0-1.58-.06-3.15ZM36.07,84.14H15.41a7.79,7.79,0,0,0-6.07-6.07V56a7.78,7.78,0,0,0,6.07-6.07H36.07A21.28,21.28,0,0,0,28,67a21.28,21.28,0,0,0,8,17.13Zm21.41-81A7.79,7.79,0,1,1,49.69,11a7.79,7.79,0,0,1,7.79-7.79ZM49.53,18.39a10.9,10.9,0,0,0,5.37,3.15l-4.35,7.53L47,22.84ZM25.05,11a7.79,7.79,0,1,1,7.78,7.78A7.81,7.81,0,0,1,25.05,11ZM35.41,21.53a10.88,10.88,0,0,0,5.38-3.14l8.65,15a37.25,37.25,0,0,1,4.92,21ZM39.8,35.37l3,5.17h-5.1a40,40,0,0,1,2.11-5.17Zm47.4,55H3.11V43.65H44.59l1.79,3.12H14a1.54,1.54,0,0,0-1.55,1.55A4.7,4.7,0,0,1,7.79,53a1.55,1.55,0,0,0-1.56,1.55V79.47A1.55,1.55,0,0,0,7.79,81a4.69,4.69,0,0,1,4.67,4.67A1.55,1.55,0,0,0,14,87.25H76.3a1.55,1.55,0,0,0,1.55-1.56A4.69,4.69,0,0,1,82.52,81a1.55,1.55,0,0,0,1.56-1.55V54.55A1.55,1.55,0,0,0,82.52,53a4.7,4.7,0,0,1-4.67-4.68,1.54,1.54,0,0,0-1.55-1.55H57.17q-.21-1.58-.54-3.12H87.2Z"/><path d="M71.63,71.68A4.67,4.67,0,1,0,67,67a4.68,4.68,0,0,0,4.68,4.67Zm0-6.23A1.56,1.56,0,1,1,70.07,67a1.56,1.56,0,0,1,1.56-1.56Z"/><path d="M18.68,62.34A4.67,4.67,0,1,0,23.36,67a4.68,4.68,0,0,0-4.68-4.67Zm0,6.23A1.56,1.56,0,1,1,20.24,67a1.55,1.55,0,0,1-1.56,1.56Z"/><path d="M43.6,59.22h3.11a1.56,1.56,0,0,1,1.56,1.56,1.56,1.56,0,1,0,3.11,0,4.67,4.67,0,0,0-4.67-4.67V54.55a1.56,1.56,0,0,0-3.11,0v1.56a4.67,4.67,0,0,0-4.67,4.67v3.11a4.68,4.68,0,0,0,4.67,4.68h3.11a1.55,1.55,0,0,1,1.56,1.55v3.12a1.55,1.55,0,0,1-1.56,1.55H43.6A1.55,1.55,0,0,1,42,73.24a1.56,1.56,0,1,0-3.11,0,4.67,4.67,0,0,0,4.67,4.67v1.56a1.56,1.56,0,0,0,3.11,0V77.91a4.67,4.67,0,0,0,4.67-4.67V70.12a4.68,4.68,0,0,0-4.67-4.67H43.6A1.56,1.56,0,0,1,42,63.89V60.78a1.56,1.56,0,0,1,1.56-1.56Z"/><path d="M57.61,15.63A4.67,4.67,0,1,0,52.94,11a4.68,4.68,0,0,0,4.67,4.68Zm0-6.23A1.55,1.55,0,1,1,56.05,11,1.56,1.56,0,0,1,57.61,9.4Z"/><path d="M44.38,31.41a1.55,1.55,0,0,0,.37,2.85,1.56,1.56,0,0,0,1.64-.56,1.55,1.55,0,0,0-2-2.29Z"/><path d="M32.7,6.28A4.67,4.67,0,1,0,37.37,11,4.68,4.68,0,0,0,32.7,6.28Zm0,6.23a1.55,1.55,0,1,1,.59-3,1.54,1.54,0,0,1,1,1.43,1.57,1.57,0,0,1-1.56,1.56Z"/></g></g></svg>